<?xml version="1.0" encoding="UTF-8"?>
<svg viewBox="0 0 33.2 33.2" xmlns="http://www.w3.org/2000/svg"><path d="m30.852 10.91-6.2748-6.2754-3.9887 3.9887 6.2753 6.275c0.9358 0.9362 0.9358 2.4683 0 3.4045l-2.2863 2.2863-7.9772-7.9775-1.9941 1.9942-1.9945 1.9942 3.9886 3.9891 3.9886 3.9883 3.9886 3.9888 6.2745-6.2747c3.1301-3.1298 3.1301-8.2514 0-11.382m-10.526-10.002c-3.0332-1.5773-6.8797-1.0972-9.4173 1.4405l-8.5615 8.5617c-3.1301 3.1302-3.1301 8.2518 0 11.382l8.5615 8.5621c2.5379 2.5376 6.3845 3.017 9.4177 1.4401l-5.4287-5.4292-2.2862-2.2867-6.2753-6.275c-0.9362-0.9362-0.9362-2.4683 0-3.4045l8.5615-8.5617z" fill="#ee008e"/></svg>
